<svg width="200" height="200" viewBox="0 0 200 200" xmlns="http://www.w3.org/2000/svg">
  <!-- Background with rounded corners and gradient -->
  <defs>
    <linearGradient id="bgGradient" x1="0%" y1="0%" x2="0%" y2="100%">
      <stop offset="0%" style="stop-color:#4A90E2;stop-opacity:1" />
      <stop offset="100%" style="stop-color:#357ABD;stop-opacity:1" />
    </linearGradient>
    <filter id="shadow" x="-50%" y="-50%" width="200%" height="200%">
      <feDropShadow dx="8" dy="8" stdDeviation="4" flood-color="#000000" flood-opacity="0.3"/>
    </filter>
  </defs>
  
  <!-- Rounded square background -->
  <rect x="10" y="10" width="180" height="180" rx="25" ry="25" fill="url(#bgGradient)"/>
  
  <!-- Rocket body -->
  <g transform="translate(100, 120)">
    <!-- Main rocket body -->
    <ellipse cx="0" cy="0" rx="25" ry="40" fill="white"/>
    
    <!-- Rocket nose cone -->
    <path d="M-20,-40 L0,-70 L20,-40 Z" fill="#FF6B35"/>
    
    <!-- Rocket fins -->
    <path d="M-25,30 L-35,50 L-15,30 Z" fill="#FF6B35"/>
    <path d="M25,30 L35,50 L15,30 Z" fill="white"/>
    <path d="M-5,30 L5,30 L0,50 Z" fill="#FF6B35"/>
    
    <!-- Rocket window/porthole -->
    <circle cx="0" cy="-10" r="8" fill="#4A90E2" stroke="white" stroke-width="2"/>
    
    <!-- Exhaust trail -->
    <path d="M-15,40 Q-25,60 -20,80 Q-15,60 -10,40 Z" fill="white" opacity="0.8"/>
    <path d="M15,40 Q25,60 20,80 Q15,60 10,40 Z" fill="white" opacity="0.8"/>
    
    <!-- Long shadow -->
    <ellipse cx="15" cy="60" rx="40" ry="8" fill="#000000" opacity="0.2"/>
  </g>
  
  <!-- Text: RocketJobs -->
  <text x="100" y="170" text-anchor="middle" fill="white" font-family="Arial, sans-serif" font-size="18" font-weight="bold">
    RocketJobs
  </text>
</svg>
